<?xml version="1.0" encoding="UTF-8" standalone="no"?>
<!-- Uploaded to: SVG Repo, www.svgrepo.com, Generator: SVG Repo Mixer Tools -->

<svg
   width="210.4519860585579"
   height="238.6183319091797"
   viewBox="0 0 312.5 354.324186329466"
   class="css-1j8o68f"
   version="1.1"
   id="svg34"
   xmlns="http://www.w3.org/2000/svg"
   xmlns:svg="http://www.w3.org/2000/svg">
  <defs
     id="SvgjsDefs1422" />
  <g
     id="SvgjsG1423"
     featurekey="rootContainer"
     transform="matrix(6.3004021,0,0,6.3004021,4.6067478e-5,0.02629653)"
     fill="#111111"
     style="display:inline">
    <path
       d="M 23.11,55.78 1.69,43.41 A 3.39,3.39 0 0 1 0,40.48 V 15.75 A 3.39,3.39 0 0 1 1.69,12.81 L 23.11,0.45 a 3.39,3.39 0 0 1 3.39,0 l 21.41,12.37 a 3.39,3.39 0 0 1 1.69,2.94 v 24.72 a 3.39,3.39 0 0 1 -1.69,2.94 L 26.5,55.78 a 3.39,3.39 0 0 1 -3.39,0 z"
       id="path454"
       style="display:inline;fill:#ffffff" />
    <path
       d="M 23.1438,55.2267 2.1522,43.1041 A 3.3222,3.3222 0 0 1 0.496,40.2327 V 15.9973 A 3.3222,3.3222 0 0 1 2.1522,13.1161 L 23.1438,1.0033 a 3.3222,3.3222 0 0 1 3.3222,0 l 20.9818,12.1226 a 3.3222,3.3222 0 0 1 1.6562,2.8812 v 24.2256 a 3.3222,3.3222 0 0 1 -1.6562,2.8812 L 26.466,55.2267 a 3.3222,3.3222 0 0 1 -3.3222,0 z"
       id="path19"
       style="display:inline;fill:#000000;fill-opacity:1;stroke-width:0.98" />
  </g>
  <g
     id="SvgjsG1424"
     featurekey="symbolFeature-0"
     transform="matrix(0.79920077,0,0,0.79920077,116.23976,113.44056)"
     fill="#f3f6f6"
     style="display:inline">
    <g
       id="g28"
       style="display:inline">
      <circle
         class="st0"
         cx="49.700001"
         cy="50.200001"
         r="14.7"
         style="fill:#f3f6f6"
         id="circle22" />
      <path
         class="st0"
         d="m 49.7,0.7 c -27.6,0 -50,22.4 -50,50 0,19.6 11.6,37.5 29.5,45.6 1.6,0.7 3.5,0 4.2,-1.6 0.7,-1.6 0,-3.5 -1.6,-4.2 C 16.2,83.5 6.1,67.9 6.1,50.7 6.1,26.7 25.7,7.1 49.7,7.1 c 24,0 43.6,19.6 43.6,43.6 0,17.5 -10.4,33.3 -26.5,40.1 -1.6,0.7 -2.4,2.6 -1.7,4.2 0.5,1.2 1.7,2 3,2 0.4,0 0.8,-0.1 1.3,-0.3 C 87.9,88.8 99.8,70.8 99.8,50.7 99.7,23.1 77.3,0.7 49.7,0.7 Z"
         style="fill:#f3f6f6"
         id="path24" />
      <path
         class="st0"
         d="M 82.5,50 C 82.5,31.9 67.8,17.2 49.7,17.2 31.6,17.2 17,31.9 17,50 c 0,12.9 7.6,24.6 19.3,29.9 1.6,0.7 3.5,0 4.2,-1.6 0.7,-1.6 0,-3.5 -1.6,-4.2 -9.4,-4.3 -15.5,-13.7 -15.5,-24 0,-14.5 11.8,-26.4 26.4,-26.4 14.6,0 26.3,11.8 26.3,26.3 0,10.6 -6.3,20.1 -16,24.3 -1.6,0.7 -2.4,2.6 -1.7,4.2 0.5,1.2 1.7,2 3,2 0.4,0 0.8,-0.1 1.3,-0.3 12,-5.2 19.8,-17 19.8,-30.2 z"
         style="display:inline;fill:#f3f6f6"
         id="path26" />
    </g>
  </g>
  <g
     id="SvgjsG1425"
     featurekey="nameFeature-0"
     transform="matrix(1.0057414,0,0,1.0057414,53.127303,199.50609)"
     fill="#f3f6f6"
     style="display:inline">
    <path
       d="M 2.8571,40 V 15.714 l 4.2857,-4.2857 h 16.571 l 4.2857,4.2857 V 40 h -7.4286 v -8 h -10.286 v 8 H 2.8563 Z M 10.286,25.714 h 10.286 v -8 H 10.286 Z M 34.571386,40 V 11.429 h 20.857 l 4.2857,4.2857 v 12 l -4.2857,4.2857 h -13.429 v 8 h -7.4286 z m 7.4289,-14.286 h 10.286 v -8 h -10.286 z m 49.999285,-10 v 10 l -4.2857,4.2857 4.2857,6.5714 v 3.4286 h -6.8571 l -5.9429,-9.7143 h -5.4857 v 9.7143 h -7.4286 v -28.571 h 21.429 z m -7.428,8.286 v -6.2857 h -10.857 V 24 Z m 31.999719,-6.286 h -10.571 v 4.8571 h 14 l 4.2857,4.2857 v 8.8571 l -4.2857,4.2857 h -17.143 l -4.285704,-4.2857 v -4.2857 h 5.428604 l 2.2857,2.2857 h 10.571 v -4.8571 h -14 L 98.571186,24.5711 V 15.714 l 4.285704,-4.2857 h 17.143 l 4.2857,4.2857 v 4.2857 h -5.4286 z M 130,40 v -5.7143 h 2.2857 V 17.1427 H 130 v -5.7143 h 12 v 5.7143 h -2.2857 v 17.143 H 142 V 40 Z m 35.42814,-28.571 h 7.4286 V 40 h -6.5714 l -11.143,-16 v 16 h -7.4286 V 11.429 h 6.5714 l 11.143,15.886 z m 12.00043,6.285 v -6.2857 h 24.286 v 6.2857 h -8.4571 V 40 h -7.4286 V 17.714 h -8.4 z"
       id="path31" />
  </g>
</svg>
