<?xml version="1.0" encoding="utf-8"?><!-- Uploaded to: SVG Repo, www.svgrepo.com, Generator: SVG Repo Mixer Tools -->
<svg width="210.4519860585579" height="238.6183319091797" viewBox="0 0 312.5 354.324186329466" class="css-1j8o68f"><defs id="SvgjsDefs1422"></defs><g id="SvgjsG1423" featurekey="rootContainer" transform="matrix(6.3004021644592285,0,0,6.3004021644592285,0.00004606747896356826,0.02629652604251387)" fill="#111111"><path xmlns="http://www.w3.org/2000/svg" d="M23.11 55.78L1.69 43.41A3.39 3.39 0 0 1 0 40.48V15.75a3.39 3.39 0 0 1 1.69-2.94L23.11.45a3.39 3.39 0 0 1 3.39 0l21.41 12.37a3.39 3.39 0 0 1 1.69 2.94v24.72a3.39 3.39 0 0 1-1.69 2.94L26.5 55.78a3.39 3.39 0 0 1-3.39 0z"></path></g><g id="SvgjsG1424" featurekey="symbolFeature-0" transform="matrix(0.7992007732391357,0,0,0.7992007732391357,116.23975961539927,113.44055948419809)" fill="#f3f6f6"><g xmlns="http://www.w3.org/2000/svg"><circle class="st0" cx="49.7" cy="50.2" r="14.7" style="fill: #f3f6f6;"></circle><path class="st0" d="M49.7,0.7c-27.6,0-50,22.4-50,50c0,19.6,11.6,37.5,29.5,45.6c1.6,0.7,3.5,0,4.2-1.6   c0.7-1.6,0-3.5-1.6-4.2c-15.6-7-25.7-22.6-25.7-39.8c0-24,19.6-43.6,43.6-43.6s43.6,19.6,43.6,43.6c0,17.5-10.4,33.3-26.5,40.1   c-1.6,0.7-2.4,2.6-1.7,4.2c0.5,1.2,1.7,2,3,2c0.4,0,0.8-0.1,1.3-0.3c18.5-7.9,30.4-25.9,30.4-46C99.7,23.1,77.3,0.7,49.7,0.7z" style="fill: #f3f6f6;"></path><path class="st0" d="M82.5,50c0-18.1-14.7-32.8-32.8-32.8S17,31.9,17,50c0,12.9,7.6,24.6,19.3,29.9   c1.6,0.7,3.5,0,4.2-1.6c0.7-1.6,0-3.5-1.6-4.2c-9.4-4.3-15.5-13.7-15.5-24c0-14.5,11.8-26.4,26.4-26.4S76.1,35.5,76.1,50   c0,10.6-6.3,20.1-16,24.3c-1.6,0.7-2.4,2.6-1.7,4.2c0.5,1.2,1.7,2,3,2c0.4,0,0.8-0.1,1.3-0.3C74.7,75,82.5,63.2,82.5,50z" style="fill: #f3f6f6;"></path></g></g><g id="SvgjsG1425" featurekey="nameFeature-0" transform="matrix(1.0057413578033447,0,0,1.0057413578033447,53.127302899333166,199.50608668749277)" fill="#f3f6f6"><path d="M2.8571 40 l0 -24.286 l4.2857 -4.2857 l16.571 0 l4.2857 4.2857 l0 24.286 l-7.4286 0 l0 -8 l-10.286 0 l0 8 l-7.4286 0 z M10.286 25.714 l10.286 0 l0 -8 l-10.286 0 l0 8 z M34.57138571428572 40 l0 -28.571 l20.857 0 l4.2857 4.2857 l0 12 l-4.2857 4.2857 l-13.429 0 l0 8 l-7.4286 0 z M42.00028571428572 25.714 l10.286 0 l0 -8 l-10.286 0 l0 8 z M91.99957142857143 15.713999999999999 l0 10 l-4.2857 4.2857 l4.2857 6.5714 l0 3.4286 l-6.8571 0 l-5.9429 -9.7143 l-5.4857 0 l0 9.7143 l-7.4286 0 l0 -28.571 l21.429 0 z M84.57157142857143 24 l0 -6.2857 l-10.857 0 l0 6.2857 l10.857 0 z M116.57128571428572 17.714 l-10.571 0 l0 4.8571 l14 0 l4.2857 4.2857 l0 8.8571 l-4.2857 4.2857 l-17.143 0 l-4.2857 -4.2857 l0 -4.2857 l5.4286 0 l2.2857 2.2857 l10.571 0 l0 -4.8571 l-14 0 l-4.2857 -4.2857 l0 -8.8571 l4.2857 -4.2857 l17.143 0 l4.2857 4.2857 l0 4.2857 l-5.4286 0 z M130 40 l0 -5.7143 l2.2857 0 l0 -17.143 l-2.2857 0 l0 -5.7143 l12 0 l0 5.7143 l-2.2857 0 l0 17.143 l2.2857 0 l0 5.7143 l-12 0 z M165.42814285714286 11.428999999999998 l7.4286 0 l0 28.571 l-6.5714 0 l-11.143 -16 l0 16 l-7.4286 0 l0 -28.571 l6.5714 0 l11.143 15.886 l0 -15.886 z M177.42856857142857 17.714 l0 -6.2857 l24.286 0 l0 6.2857 l-8.4571 0 l0 22.286 l-7.4286 0 l0 -22.286 l-8.4 0 z"></path></g></svg>